<svg xmlns="http://www.w3.org/2000/svg" viewBox="0 0 720 560" width="720" height="560" font-family="Segoe UI, Microsoft YaHei, Helvetica, Arial, sans-serif"><rect width="720" height="560" fill="white"/>
<text x="360.0" y="28.0" font-size="16" fill="#2B2B2B" text-anchor="middle" font-weight="bold">平安京：左京称「洛阳」，右京称「长安」</text>
<text x="360.0" y="50.0" font-size="12" fill="#5A5A5A" text-anchor="middle">794 年迁都，仿唐长安与洛阳的条坊制，规模约为长安的四分之一</text>
<rect x="120.0" y="84.0" width="480.0" height="372.0" rx="0" fill="white" fill-opacity="1.0" stroke="#5A5A5A" stroke-width="2.0"/>
<rect x="120.0" y="84.0" width="236.0" height="372.0" rx="0" fill="#D55E00" fill-opacity="0.1" stroke="#D55E00" stroke-width="1.0"/>
<rect x="364.0" y="84.0" width="236.0" height="372.0" rx="0" fill="#0072B2" fill-opacity="0.1" stroke="#0072B2" stroke-width="1.0"/>
<rect x="120.0" y="148.0" width="39.2" height="32.0" rx="0" fill="white" fill-opacity="1.0" stroke="#EDEDED" stroke-width="1.0"/>
<rect x="364.0" y="148.0" width="39.2" height="32.0" rx="0" fill="white" fill-opacity="1.0" stroke="#EDEDED" stroke-width="1.0"/>
<rect x="159.2" y="148.0" width="39.2" height="32.0" rx="0" fill="white" fill-opacity="1.0" stroke="#EDEDED" stroke-width="1.0"/>
<rect x="403.2" y="148.0" width="39.2" height="32.0" rx="0" fill="white" fill-opacity="1.0" stroke="#EDEDED" stroke-width="1.0"/>
<rect x="198.4" y="148.0" width="39.2" height="32.0" rx="0" fill="white" fill-opacity="1.0" stroke="#EDEDED" stroke-width="1.0"/>
<rect x="442.4" y="148.0" width="39.2" height="32.0" rx="0" fill="white" fill-opacity="1.0" stroke="#EDEDED" stroke-width="1.0"/>
<rect x="237.6" y="148.0" width="39.2" height="32.0" rx="0" fill="white" fill-opacity="1.0" stroke="#EDEDED" stroke-width="1.0"/>
<rect x="481.6" y="148.0" width="39.2" height="32.0" rx="0" fill="white" fill-opacity="1.0" stroke="#EDEDED" stroke-width="1.0"/>
<rect x="276.8" y="148.0" width="39.2" height="32.0" rx="0" fill="white" fill-opacity="1.0" stroke="#EDEDED" stroke-width="1.0"/>
<rect x="520.8" y="148.0" width="39.2" height="32.0" rx="0" fill="white" fill-opacity="1.0" stroke="#EDEDED" stroke-width="1.0"/>
<rect x="316.0" y="148.0" width="39.2" height="32.0" rx="0" fill="white" fill-opacity="1.0" stroke="#EDEDED" stroke-width="1.0"/>
<rect x="560.0" y="148.0" width="39.2" height="32.0" rx="0" fill="white" fill-opacity="1.0" stroke="#EDEDED" stroke-width="1.0"/>
<rect x="120.0" y="180.0" width="39.2" height="32.0" rx="0" fill="white" fill-opacity="1.0" stroke="#EDEDED" stroke-width="1.0"/>
<rect x="364.0" y="180.0" width="39.2" height="32.0" rx="0" fill="white" fill-opacity="1.0" stroke="#EDEDED" stroke-width="1.0"/>
<rect x="159.2" y="180.0" width="39.2" height="32.0" rx="0" fill="white" fill-opacity="1.0" stroke="#EDEDED" stroke-width="1.0"/>
<rect x="403.2" y="180.0" width="39.2" height="32.0" rx="0" fill="white" fill-opacity="1.0" stroke="#EDEDED" stroke-width="1.0"/>
<rect x="198.4" y="180.0" width="39.2" height="32.0" rx="0" fill="white" fill-opacity="1.0" stroke="#EDEDED" stroke-width="1.0"/>
<rect x="442.4" y="180.0" width="39.2" height="32.0" rx="0" fill="white" fill-opacity="1.0" stroke="#EDEDED" stroke-width="1.0"/>
<rect x="237.6" y="180.0" width="39.2" height="32.0" rx="0" fill="white" fill-opacity="1.0" stroke="#EDEDED" stroke-width="1.0"/>
<rect x="481.6" y="180.0" width="39.2" height="32.0" rx="0" fill="white" fill-opacity="1.0" stroke="#EDEDED" stroke-width="1.0"/>
<rect x="276.8" y="180.0" width="39.2" height="32.0" rx="0" fill="white" fill-opacity="1.0" stroke="#EDEDED" stroke-width="1.0"/>
<rect x="520.8" y="180.0" width="39.2" height="32.0" rx="0" fill="white" fill-opacity="1.0" stroke="#EDEDED" stroke-width="1.0"/>
<rect x="316.0" y="180.0" width="39.2" height="32.0" rx="0" fill="white" fill-opacity="1.0" stroke="#EDEDED" stroke-width="1.0"/>
<rect x="560.0" y="180.0" width="39.2" height="32.0" rx="0" fill="white" fill-opacity="1.0" stroke="#EDEDED" stroke-width="1.0"/>
<rect x="120.0" y="212.0" width="39.2" height="32.0" rx="0" fill="white" fill-opacity="1.0" stroke="#EDEDED" stroke-width="1.0"/>
<rect x="364.0" y="212.0" width="39.2" height="32.0" rx="0" fill="white" fill-opacity="1.0" stroke="#EDEDED" stroke-width="1.0"/>
<rect x="159.2" y="212.0" width="39.2" height="32.0" rx="0" fill="white" fill-opacity="1.0" stroke="#EDEDED" stroke-width="1.0"/>
<rect x="403.2" y="212.0" width="39.2" height="32.0" rx="0" fill="white" fill-opacity="1.0" stroke="#EDEDED" stroke-width="1.0"/>
<rect x="198.4" y="212.0" width="39.2" height="32.0" rx="0" fill="white" fill-opacity="1.0" stroke="#EDEDED" stroke-width="1.0"/>
<rect x="442.4" y="212.0" width="39.2" height="32.0" rx="0" fill="white" fill-opacity="1.0" stroke="#EDEDED" stroke-width="1.0"/>
<rect x="237.6" y="212.0" width="39.2" height="32.0" rx="0" fill="white" fill-opacity="1.0" stroke="#EDEDED" stroke-width="1.0"/>
<rect x="481.6" y="212.0" width="39.2" height="32.0" rx="0" fill="white" fill-opacity="1.0" stroke="#EDEDED" stroke-width="1.0"/>
<rect x="276.8" y="212.0" width="39.2" height="32.0" rx="0" fill="white" fill-opacity="1.0" stroke="#EDEDED" stroke-width="1.0"/>
<rect x="520.8" y="212.0" width="39.2" height="32.0" rx="0" fill="white" fill-opacity="1.0" stroke="#EDEDED" stroke-width="1.0"/>
<rect x="316.0" y="212.0" width="39.2" height="32.0" rx="0" fill="white" fill-opacity="1.0" stroke="#EDEDED" stroke-width="1.0"/>
<rect x="560.0" y="212.0" width="39.2" height="32.0" rx="0" fill="white" fill-opacity="1.0" stroke="#EDEDED" stroke-width="1.0"/>
<rect x="120.0" y="244.0" width="39.2" height="32.0" rx="0" fill="white" fill-opacity="1.0" stroke="#EDEDED" stroke-width="1.0"/>
<rect x="364.0" y="244.0" width="39.2" height="32.0" rx="0" fill="white" fill-opacity="1.0" stroke="#EDEDED" stroke-width="1.0"/>
<rect x="159.2" y="244.0" width="39.2" height="32.0" rx="0" fill="white" fill-opacity="1.0" stroke="#EDEDED" stroke-width="1.0"/>
<rect x="403.2" y="244.0" width="39.2" height="32.0" rx="0" fill="white" fill-opacity="1.0" stroke="#EDEDED" stroke-width="1.0"/>
<rect x="198.4" y="244.0" width="39.2" height="32.0" rx="0" fill="white" fill-opacity="1.0" stroke="#EDEDED" stroke-width="1.0"/>
<rect x="442.4" y="244.0" width="39.2" height="32.0" rx="0" fill="white" fill-opacity="1.0" stroke="#EDEDED" stroke-width="1.0"/>
<rect x="237.6" y="244.0" width="39.2" height="32.0" rx="0" fill="white" fill-opacity="1.0" stroke="#EDEDED" stroke-width="1.0"/>
<rect x="481.6" y="244.0" width="39.2" height="32.0" rx="0" fill="white" fill-opacity="1.0" stroke="#EDEDED" stroke-width="1.0"/>
<rect x="276.8" y="244.0" width="39.2" height="32.0" rx="0" fill="white" fill-opacity="1.0" stroke="#EDEDED" stroke-width="1.0"/>
<rect x="520.8" y="244.0" width="39.2" height="32.0" rx="0" fill="white" fill-opacity="1.0" stroke="#EDEDED" stroke-width="1.0"/>
<rect x="316.0" y="244.0" width="39.2" height="32.0" rx="0" fill="white" fill-opacity="1.0" stroke="#EDEDED" stroke-width="1.0"/>
<rect x="560.0" y="244.0" width="39.2" height="32.0" rx="0" fill="white" fill-opacity="1.0" stroke="#EDEDED" stroke-width="1.0"/>
<rect x="120.0" y="276.0" width="39.2" height="32.0" rx="0" fill="white" fill-opacity="1.0" stroke="#EDEDED" stroke-width="1.0"/>
<rect x="364.0" y="276.0" width="39.2" height="32.0" rx="0" fill="white" fill-opacity="1.0" stroke="#EDEDED" stroke-width="1.0"/>
<rect x="159.2" y="276.0" width="39.2" height="32.0" rx="0" fill="white" fill-opacity="1.0" stroke="#EDEDED" stroke-width="1.0"/>
<rect x="403.2" y="276.0" width="39.2" height="32.0" rx="0" fill="white" fill-opacity="1.0" stroke="#EDEDED" stroke-width="1.0"/>
<rect x="198.4" y="276.0" width="39.2" height="32.0" rx="0" fill="white" fill-opacity="1.0" stroke="#EDEDED" stroke-width="1.0"/>
<rect x="442.4" y="276.0" width="39.2" height="32.0" rx="0" fill="white" fill-opacity="1.0" stroke="#EDEDED" stroke-width="1.0"/>
<rect x="237.6" y="276.0" width="39.2" height="32.0" rx="0" fill="white" fill-opacity="1.0" stroke="#EDEDED" stroke-width="1.0"/>
<rect x="481.6" y="276.0" width="39.2" height="32.0" rx="0" fill="white" fill-opacity="1.0" stroke="#EDEDED" stroke-width="1.0"/>
<rect x="276.8" y="276.0" width="39.2" height="32.0" rx="0" fill="white" fill-opacity="1.0" stroke="#EDEDED" stroke-width="1.0"/>
<rect x="520.8" y="276.0" width="39.2" height="32.0" rx="0" fill="white" fill-opacity="1.0" stroke="#EDEDED" stroke-width="1.0"/>
<rect x="316.0" y="276.0" width="39.2" height="32.0" rx="0" fill="white" fill-opacity="1.0" stroke="#EDEDED" stroke-width="1.0"/>
<rect x="560.0" y="276.0" width="39.2" height="32.0" rx="0" fill="white" fill-opacity="1.0" stroke="#EDEDED" stroke-width="1.0"/>
<rect x="120.0" y="308.0" width="39.2" height="32.0" rx="0" fill="white" fill-opacity="1.0" stroke="#EDEDED" stroke-width="1.0"/>
<rect x="364.0" y="308.0" width="39.2" height="32.0" rx="0" fill="white" fill-opacity="1.0" stroke="#EDEDED" stroke-width="1.0"/>
<rect x="159.2" y="308.0" width="39.2" height="32.0" rx="0" fill="white" fill-opacity="1.0" stroke="#EDEDED" stroke-width="1.0"/>
<rect x="403.2" y="308.0" width="39.2" height="32.0" rx="0" fill="white" fill-opacity="1.0" stroke="#EDEDED" stroke-width="1.0"/>
<rect x="198.4" y="308.0" width="39.2" height="32.0" rx="0" fill="white" fill-opacity="1.0" stroke="#EDEDED" stroke-width="1.0"/>
<rect x="442.4" y="308.0" width="39.2" height="32.0" rx="0" fill="white" fill-opacity="1.0" stroke="#EDEDED" stroke-width="1.0"/>
<rect x="237.6" y="308.0" width="39.2" height="32.0" rx="0" fill="white" fill-opacity="1.0" stroke="#EDEDED" stroke-width="1.0"/>
<rect x="481.6" y="308.0" width="39.2" height="32.0" rx="0" fill="white" fill-opacity="1.0" stroke="#EDEDED" stroke-width="1.0"/>
<rect x="276.8" y="308.0" width="39.2" height="32.0" rx="0" fill="white" fill-opacity="1.0" stroke="#EDEDED" stroke-width="1.0"/>
<rect x="520.8" y="308.0" width="39.2" height="32.0" rx="0" fill="white" fill-opacity="1.0" stroke="#EDEDED" stroke-width="1.0"/>
<rect x="316.0" y="308.0" width="39.2" height="32.0" rx="0" fill="white" fill-opacity="1.0" stroke="#EDEDED" stroke-width="1.0"/>
<rect x="560.0" y="308.0" width="39.2" height="32.0" rx="0" fill="white" fill-opacity="1.0" stroke="#EDEDED" stroke-width="1.0"/>
<rect x="120.0" y="340.0" width="39.2" height="32.0" rx="0" fill="white" fill-opacity="1.0" stroke="#EDEDED" stroke-width="1.0"/>
<rect x="364.0" y="340.0" width="39.2" height="32.0" rx="0" fill="white" fill-opacity="1.0" stroke="#EDEDED" stroke-width="1.0"/>
<rect x="159.2" y="340.0" width="39.2" height="32.0" rx="0" fill="white" fill-opacity="1.0" stroke="#EDEDED" stroke-width="1.0"/>
<rect x="403.2" y="340.0" width="39.2" height="32.0" rx="0" fill="white" fill-opacity="1.0" stroke="#EDEDED" stroke-width="1.0"/>
<rect x="198.4" y="340.0" width="39.2" height="32.0" rx="0" fill="white" fill-opacity="1.0" stroke="#EDEDED" stroke-width="1.0"/>
<rect x="442.4" y="340.0" width="39.2" height="32.0" rx="0" fill="white" fill-opacity="1.0" stroke="#EDEDED" stroke-width="1.0"/>
<rect x="237.6" y="340.0" width="39.2" height="32.0" rx="0" fill="white" fill-opacity="1.0" stroke="#EDEDED" stroke-width="1.0"/>
<rect x="481.6" y="340.0" width="39.2" height="32.0" rx="0" fill="white" fill-opacity="1.0" stroke="#EDEDED" stroke-width="1.0"/>
<rect x="276.8" y="340.0" width="39.2" height="32.0" rx="0" fill="white" fill-opacity="1.0" stroke="#EDEDED" stroke-width="1.0"/>
<rect x="520.8" y="340.0" width="39.2" height="32.0" rx="0" fill="white" fill-opacity="1.0" stroke="#EDEDED" stroke-width="1.0"/>
<rect x="316.0" y="340.0" width="39.2" height="32.0" rx="0" fill="white" fill-opacity="1.0" stroke="#EDEDED" stroke-width="1.0"/>
<rect x="560.0" y="340.0" width="39.2" height="32.0" rx="0" fill="white" fill-opacity="1.0" stroke="#EDEDED" stroke-width="1.0"/>
<rect x="120.0" y="372.0" width="39.2" height="32.0" rx="0" fill="white" fill-opacity="1.0" stroke="#EDEDED" stroke-width="1.0"/>
<rect x="364.0" y="372.0" width="39.2" height="32.0" rx="0" fill="white" fill-opacity="1.0" stroke="#EDEDED" stroke-width="1.0"/>
<rect x="159.2" y="372.0" width="39.2" height="32.0" rx="0" fill="white" fill-opacity="1.0" stroke="#EDEDED" stroke-width="1.0"/>
<rect x="403.2" y="372.0" width="39.2" height="32.0" rx="0" fill="white" fill-opacity="1.0" stroke="#EDEDED" stroke-width="1.0"/>
<rect x="198.4" y="372.0" width="39.2" height="32.0" rx="0" fill="white" fill-opacity="1.0" stroke="#EDEDED" stroke-width="1.0"/>
<rect x="442.4" y="372.0" width="39.2" height="32.0" rx="0" fill="white" fill-opacity="1.0" stroke="#EDEDED" stroke-width="1.0"/>
<rect x="237.6" y="372.0" width="39.2" height="32.0" rx="0" fill="white" fill-opacity="1.0" stroke="#EDEDED" stroke-width="1.0"/>
<rect x="481.6" y="372.0" width="39.2" height="32.0" rx="0" fill="white" fill-opacity="1.0" stroke="#EDEDED" stroke-width="1.0"/>
<rect x="276.8" y="372.0" width="39.2" height="32.0" rx="0" fill="white" fill-opacity="1.0" stroke="#EDEDED" stroke-width="1.0"/>
<rect x="520.8" y="372.0" width="39.2" height="32.0" rx="0" fill="white" fill-opacity="1.0" stroke="#EDEDED" stroke-width="1.0"/>
<rect x="316.0" y="372.0" width="39.2" height="32.0" rx="0" fill="white" fill-opacity="1.0" stroke="#EDEDED" stroke-width="1.0"/>
<rect x="560.0" y="372.0" width="39.2" height="32.0" rx="0" fill="white" fill-opacity="1.0" stroke="#EDEDED" stroke-width="1.0"/>
<rect x="120.0" y="404.0" width="39.2" height="32.0" rx="0" fill="white" fill-opacity="1.0" stroke="#EDEDED" stroke-width="1.0"/>
<rect x="364.0" y="404.0" width="39.2" height="32.0" rx="0" fill="white" fill-opacity="1.0" stroke="#EDEDED" stroke-width="1.0"/>
<rect x="159.2" y="404.0" width="39.2" height="32.0" rx="0" fill="white" fill-opacity="1.0" stroke="#EDEDED" stroke-width="1.0"/>
<rect x="403.2" y="404.0" width="39.2" height="32.0" rx="0" fill="white" fill-opacity="1.0" stroke="#EDEDED" stroke-width="1.0"/>
<rect x="198.4" y="404.0" width="39.2" height="32.0" rx="0" fill="white" fill-opacity="1.0" stroke="#EDEDED" stroke-width="1.0"/>
<rect x="442.4" y="404.0" width="39.2" height="32.0" rx="0" fill="white" fill-opacity="1.0" stroke="#EDEDED" stroke-width="1.0"/>
<rect x="237.6" y="404.0" width="39.2" height="32.0" rx="0" fill="white" fill-opacity="1.0" stroke="#EDEDED" stroke-width="1.0"/>
<rect x="481.6" y="404.0" width="39.2" height="32.0" rx="0" fill="white" fill-opacity="1.0" stroke="#EDEDED" stroke-width="1.0"/>
<rect x="276.8" y="404.0" width="39.2" height="32.0" rx="0" fill="white" fill-opacity="1.0" stroke="#EDEDED" stroke-width="1.0"/>
<rect x="520.8" y="404.0" width="39.2" height="32.0" rx="0" fill="white" fill-opacity="1.0" stroke="#EDEDED" stroke-width="1.0"/>
<rect x="316.0" y="404.0" width="39.2" height="32.0" rx="0" fill="white" fill-opacity="1.0" stroke="#EDEDED" stroke-width="1.0"/>
<rect x="560.0" y="404.0" width="39.2" height="32.0" rx="0" fill="white" fill-opacity="1.0" stroke="#EDEDED" stroke-width="1.0"/>
<rect x="236.0" y="84.0" width="248.0" height="64.0" rx="0" fill="#D55E00" fill-opacity="0.28" stroke="#D55E00" stroke-width="1.6"/>
<text x="360.0" y="122.0" font-size="13.0" fill="#D55E00" text-anchor="middle" font-weight="bold">平安宫</text>
<rect x="356.0" y="148.0" width="8.0" height="308.0" rx="0" fill="#4A4A4A" fill-opacity="0.35" stroke="#4A4A4A" stroke-width="1.0"/>
<text x="346.0" y="360.0" font-size="16.0" fill="#D55E00" text-anchor="end" font-weight="bold">左京</text>
<text x="346.0" y="382.0" font-size="13.0" fill="#D55E00" text-anchor="end">洛阳</text>
<text x="374.0" y="360.0" font-size="16.0" fill="#0072B2" font-weight="bold">右京</text>
<text x="374.0" y="382.0" font-size="13.0" fill="#0072B2">长安</text>
<rect x="198.4" y="212.0" width="78.4" height="64.0" rx="0" fill="#56B4E9" fill-opacity="0.32" stroke="#56B4E9" stroke-width="1.4"/>
<rect x="442.4" y="212.0" width="78.4" height="64.0" rx="0" fill="#56B4E9" fill-opacity="0.32" stroke="#56B4E9" stroke-width="1.4"/>
<text x="237.6" y="248.0" font-size="12" fill="#2B2B2B" text-anchor="middle" font-weight="bold">西市</text>
<text x="481.6" y="248.0" font-size="12" fill="#2B2B2B" text-anchor="middle" font-weight="bold">东市</text>
<rect x="198.4" y="384.0" width="78.4" height="64.0" rx="0" fill="#AFAFAF" fill-opacity="0.3" stroke="#AFAFAF" stroke-width="1.4"/>
<rect x="442.4" y="384.0" width="78.4" height="64.0" rx="0" fill="#AFAFAF" fill-opacity="0.3" stroke="#AFAFAF" stroke-width="1.4"/>
<text x="237.6" y="420.0" font-size="12" fill="#5A5A5A" text-anchor="middle" font-weight="bold">西寺</text>
<text x="481.6" y="420.0" font-size="12" fill="#5A5A5A" text-anchor="middle" font-weight="bold">东寺</text>
<text x="360.0" y="476.0" font-size="12.0" fill="#5A5A5A" text-anchor="middle">罗城门（朱雀大路南端）</text>
<text x="636.0" y="448.0" font-size="12" fill="#0072B2" text-anchor="end">右京地势低湿，</text>
<text x="636.0" y="464.0" font-size="12" fill="#0072B2" text-anchor="end">半个世纪即荒废</text>
<rect x="120.0" y="503.0" width="20.0" height="12.0" rx="2" fill="#D55E00" fill-opacity="0.35" stroke="#D55E00" stroke-width="1.0"/>
<text x="146.0" y="514.0" font-size="12" fill="#5A5A5A">平安宫与左京</text>
<rect x="270.0" y="503.0" width="20.0" height="12.0" rx="2" fill="#0072B2" fill-opacity="0.35" stroke="#0072B2" stroke-width="1.0"/>
<text x="296.0" y="514.0" font-size="12" fill="#5A5A5A">右京</text>
<rect x="420.0" y="503.0" width="20.0" height="12.0" rx="2" fill="#56B4E9" fill-opacity="0.35" stroke="#56B4E9" stroke-width="1.0"/>
<text x="446.0" y="514.0" font-size="12" fill="#5A5A5A">东市、西市</text>
<rect x="570.0" y="503.0" width="20.0" height="12.0" rx="2" fill="#AFAFAF" fill-opacity="0.35" stroke="#AFAFAF" stroke-width="1.0"/>
<text x="596.0" y="514.0" font-size="12" fill="#5A5A5A">东寺、西寺</text>
<text x="120.0" y="542.0" font-size="12" fill="#5A5A5A">平安京没有构筑高大的城墙，这是它与长安、洛阳最明显的不同。</text>
</svg>