<svg xmlns="http://www.w3.org/2000/svg" viewBox="0 0 720 560" width="720" height="560" font-family="Segoe UI, Microsoft YaHei, Helvetica, Arial, sans-serif"><rect width="720" height="560" fill="white"/>
<text x="360.0" y="28.0" font-size="16" fill="#2B2B2B" text-anchor="middle" font-weight="bold">隋唐洛阳城：洛水横贯，宫城在西北</text>
<text x="360.0" y="50.0" font-size="12" fill="#5A5A5A" text-anchor="middle">面积约 47 平方公里，郭城内分坊，商肆集中在北、南、西三市</text>
<rect x="84.0" y="84.0" width="532.0" height="384.0" rx="0" fill="white" fill-opacity="1.0" stroke="#5A5A5A" stroke-width="2.0"/>
<rect x="258.0" y="90.0" width="40.0" height="38.0" rx="0" fill="white" fill-opacity="1.0" stroke="#EDEDED" stroke-width="1.0"/>
<rect x="298.0" y="90.0" width="40.0" height="38.0" rx="0" fill="white" fill-opacity="1.0" stroke="#EDEDED" stroke-width="1.0"/>
<rect x="338.0" y="90.0" width="40.0" height="38.0" rx="0" fill="white" fill-opacity="1.0" stroke="#EDEDED" stroke-width="1.0"/>
<rect x="378.0" y="90.0" width="40.0" height="38.0" rx="0" fill="white" fill-opacity="1.0" stroke="#EDEDED" stroke-width="1.0"/>
<rect x="418.0" y="90.0" width="40.0" height="38.0" rx="0" fill="white" fill-opacity="1.0" stroke="#EDEDED" stroke-width="1.0"/>
<rect x="458.0" y="90.0" width="40.0" height="38.0" rx="0" fill="white" fill-opacity="1.0" stroke="#EDEDED" stroke-width="1.0"/>
<rect x="498.0" y="90.0" width="40.0" height="38.0" rx="0" fill="white" fill-opacity="1.0" stroke="#EDEDED" stroke-width="1.0"/>
<rect x="538.0" y="90.0" width="40.0" height="38.0" rx="0" fill="white" fill-opacity="1.0" stroke="#EDEDED" stroke-width="1.0"/>
<rect x="578.0" y="90.0" width="40.0" height="38.0" rx="0" fill="white" fill-opacity="1.0" stroke="#EDEDED" stroke-width="1.0"/>
<rect x="258.0" y="128.0" width="40.0" height="38.0" rx="0" fill="white" fill-opacity="1.0" stroke="#EDEDED" stroke-width="1.0"/>
<rect x="298.0" y="128.0" width="40.0" height="38.0" rx="0" fill="white" fill-opacity="1.0" stroke="#EDEDED" stroke-width="1.0"/>
<rect x="338.0" y="128.0" width="40.0" height="38.0" rx="0" fill="white" fill-opacity="1.0" stroke="#EDEDED" stroke-width="1.0"/>
<rect x="378.0" y="128.0" width="40.0" height="38.0" rx="0" fill="white" fill-opacity="1.0" stroke="#EDEDED" stroke-width="1.0"/>
<rect x="418.0" y="128.0" width="40.0" height="38.0" rx="0" fill="white" fill-opacity="1.0" stroke="#EDEDED" stroke-width="1.0"/>
<rect x="458.0" y="128.0" width="40.0" height="38.0" rx="0" fill="white" fill-opacity="1.0" stroke="#EDEDED" stroke-width="1.0"/>
<rect x="498.0" y="128.0" width="40.0" height="38.0" rx="0" fill="white" fill-opacity="1.0" stroke="#EDEDED" stroke-width="1.0"/>
<rect x="538.0" y="128.0" width="40.0" height="38.0" rx="0" fill="white" fill-opacity="1.0" stroke="#EDEDED" stroke-width="1.0"/>
<rect x="578.0" y="128.0" width="40.0" height="38.0" rx="0" fill="white" fill-opacity="1.0" stroke="#EDEDED" stroke-width="1.0"/>
<rect x="90.0" y="270.0" width="41.0" height="34.0" rx="0" fill="white" fill-opacity="1.0" stroke="#EDEDED" stroke-width="1.0"/>
<rect x="131.0" y="270.0" width="41.0" height="34.0" rx="0" fill="white" fill-opacity="1.0" stroke="#EDEDED" stroke-width="1.0"/>
<rect x="172.0" y="270.0" width="41.0" height="34.0" rx="0" fill="white" fill-opacity="1.0" stroke="#EDEDED" stroke-width="1.0"/>
<rect x="213.0" y="270.0" width="41.0" height="34.0" rx="0" fill="white" fill-opacity="1.0" stroke="#EDEDED" stroke-width="1.0"/>
<rect x="254.0" y="270.0" width="41.0" height="34.0" rx="0" fill="white" fill-opacity="1.0" stroke="#EDEDED" stroke-width="1.0"/>
<rect x="295.0" y="270.0" width="41.0" height="34.0" rx="0" fill="white" fill-opacity="1.0" stroke="#EDEDED" stroke-width="1.0"/>
<rect x="336.0" y="270.0" width="41.0" height="34.0" rx="0" fill="white" fill-opacity="1.0" stroke="#EDEDED" stroke-width="1.0"/>
<rect x="377.0" y="270.0" width="41.0" height="34.0" rx="0" fill="white" fill-opacity="1.0" stroke="#EDEDED" stroke-width="1.0"/>
<rect x="418.0" y="270.0" width="41.0" height="34.0" rx="0" fill="white" fill-opacity="1.0" stroke="#EDEDED" stroke-width="1.0"/>
<rect x="459.0" y="270.0" width="41.0" height="34.0" rx="0" fill="white" fill-opacity="1.0" stroke="#EDEDED" stroke-width="1.0"/>
<rect x="500.0" y="270.0" width="41.0" height="34.0" rx="0" fill="white" fill-opacity="1.0" stroke="#EDEDED" stroke-width="1.0"/>
<rect x="541.0" y="270.0" width="41.0" height="34.0" rx="0" fill="white" fill-opacity="1.0" stroke="#EDEDED" stroke-width="1.0"/>
<rect x="582.0" y="270.0" width="41.0" height="34.0" rx="0" fill="white" fill-opacity="1.0" stroke="#EDEDED" stroke-width="1.0"/>
<rect x="90.0" y="304.0" width="41.0" height="34.0" rx="0" fill="white" fill-opacity="1.0" stroke="#EDEDED" stroke-width="1.0"/>
<rect x="131.0" y="304.0" width="41.0" height="34.0" rx="0" fill="white" fill-opacity="1.0" stroke="#EDEDED" stroke-width="1.0"/>
<rect x="172.0" y="304.0" width="41.0" height="34.0" rx="0" fill="white" fill-opacity="1.0" stroke="#EDEDED" stroke-width="1.0"/>
<rect x="213.0" y="304.0" width="41.0" height="34.0" rx="0" fill="white" fill-opacity="1.0" stroke="#EDEDED" stroke-width="1.0"/>
<rect x="254.0" y="304.0" width="41.0" height="34.0" rx="0" fill="white" fill-opacity="1.0" stroke="#EDEDED" stroke-width="1.0"/>
<rect x="295.0" y="304.0" width="41.0" height="34.0" rx="0" fill="white" fill-opacity="1.0" stroke="#EDEDED" stroke-width="1.0"/>
<rect x="336.0" y="304.0" width="41.0" height="34.0" rx="0" fill="white" fill-opacity="1.0" stroke="#EDEDED" stroke-width="1.0"/>
<rect x="377.0" y="304.0" width="41.0" height="34.0" rx="0" fill="white" fill-opacity="1.0" stroke="#EDEDED" stroke-width="1.0"/>
<rect x="418.0" y="304.0" width="41.0" height="34.0" rx="0" fill="white" fill-opacity="1.0" stroke="#EDEDED" stroke-width="1.0"/>
<rect x="459.0" y="304.0" width="41.0" height="34.0" rx="0" fill="white" fill-opacity="1.0" stroke="#EDEDED" stroke-width="1.0"/>
<rect x="500.0" y="304.0" width="41.0" height="34.0" rx="0" fill="white" fill-opacity="1.0" stroke="#EDEDED" stroke-width="1.0"/>
<rect x="541.0" y="304.0" width="41.0" height="34.0" rx="0" fill="white" fill-opacity="1.0" stroke="#EDEDED" stroke-width="1.0"/>
<rect x="582.0" y="304.0" width="41.0" height="34.0" rx="0" fill="white" fill-opacity="1.0" stroke="#EDEDED" stroke-width="1.0"/>
<rect x="90.0" y="338.0" width="41.0" height="34.0" rx="0" fill="white" fill-opacity="1.0" stroke="#EDEDED" stroke-width="1.0"/>
<rect x="131.0" y="338.0" width="41.0" height="34.0" rx="0" fill="white" fill-opacity="1.0" stroke="#EDEDED" stroke-width="1.0"/>
<rect x="172.0" y="338.0" width="41.0" height="34.0" rx="0" fill="white" fill-opacity="1.0" stroke="#EDEDED" stroke-width="1.0"/>
<rect x="213.0" y="338.0" width="41.0" height="34.0" rx="0" fill="white" fill-opacity="1.0" stroke="#EDEDED" stroke-width="1.0"/>
<rect x="254.0" y="338.0" width="41.0" height="34.0" rx="0" fill="white" fill-opacity="1.0" stroke="#EDEDED" stroke-width="1.0"/>
<rect x="295.0" y="338.0" width="41.0" height="34.0" rx="0" fill="white" fill-opacity="1.0" stroke="#EDEDED" stroke-width="1.0"/>
<rect x="336.0" y="338.0" width="41.0" height="34.0" rx="0" fill="white" fill-opacity="1.0" stroke="#EDEDED" stroke-width="1.0"/>
<rect x="377.0" y="338.0" width="41.0" height="34.0" rx="0" fill="white" fill-opacity="1.0" stroke="#EDEDED" stroke-width="1.0"/>
<rect x="418.0" y="338.0" width="41.0" height="34.0" rx="0" fill="white" fill-opacity="1.0" stroke="#EDEDED" stroke-width="1.0"/>
<rect x="459.0" y="338.0" width="41.0" height="34.0" rx="0" fill="white" fill-opacity="1.0" stroke="#EDEDED" stroke-width="1.0"/>
<rect x="500.0" y="338.0" width="41.0" height="34.0" rx="0" fill="white" fill-opacity="1.0" stroke="#EDEDED" stroke-width="1.0"/>
<rect x="541.0" y="338.0" width="41.0" height="34.0" rx="0" fill="white" fill-opacity="1.0" stroke="#EDEDED" stroke-width="1.0"/>
<rect x="582.0" y="338.0" width="41.0" height="34.0" rx="0" fill="white" fill-opacity="1.0" stroke="#EDEDED" stroke-width="1.0"/>
<rect x="90.0" y="372.0" width="41.0" height="34.0" rx="0" fill="white" fill-opacity="1.0" stroke="#EDEDED" stroke-width="1.0"/>
<rect x="131.0" y="372.0" width="41.0" height="34.0" rx="0" fill="white" fill-opacity="1.0" stroke="#EDEDED" stroke-width="1.0"/>
<rect x="172.0" y="372.0" width="41.0" height="34.0" rx="0" fill="white" fill-opacity="1.0" stroke="#EDEDED" stroke-width="1.0"/>
<rect x="213.0" y="372.0" width="41.0" height="34.0" rx="0" fill="white" fill-opacity="1.0" stroke="#EDEDED" stroke-width="1.0"/>
<rect x="254.0" y="372.0" width="41.0" height="34.0" rx="0" fill="white" fill-opacity="1.0" stroke="#EDEDED" stroke-width="1.0"/>
<rect x="295.0" y="372.0" width="41.0" height="34.0" rx="0" fill="white" fill-opacity="1.0" stroke="#EDEDED" stroke-width="1.0"/>
<rect x="336.0" y="372.0" width="41.0" height="34.0" rx="0" fill="white" fill-opacity="1.0" stroke="#EDEDED" stroke-width="1.0"/>
<rect x="377.0" y="372.0" width="41.0" height="34.0" rx="0" fill="white" fill-opacity="1.0" stroke="#EDEDED" stroke-width="1.0"/>
<rect x="418.0" y="372.0" width="41.0" height="34.0" rx="0" fill="white" fill-opacity="1.0" stroke="#EDEDED" stroke-width="1.0"/>
<rect x="459.0" y="372.0" width="41.0" height="34.0" rx="0" fill="white" fill-opacity="1.0" stroke="#EDEDED" stroke-width="1.0"/>
<rect x="500.0" y="372.0" width="41.0" height="34.0" rx="0" fill="white" fill-opacity="1.0" stroke="#EDEDED" stroke-width="1.0"/>
<rect x="541.0" y="372.0" width="41.0" height="34.0" rx="0" fill="white" fill-opacity="1.0" stroke="#EDEDED" stroke-width="1.0"/>
<rect x="582.0" y="372.0" width="41.0" height="34.0" rx="0" fill="white" fill-opacity="1.0" stroke="#EDEDED" stroke-width="1.0"/>
<rect x="90.0" y="406.0" width="41.0" height="34.0" rx="0" fill="white" fill-opacity="1.0" stroke="#EDEDED" stroke-width="1.0"/>
<rect x="131.0" y="406.0" width="41.0" height="34.0" rx="0" fill="white" fill-opacity="1.0" stroke="#EDEDED" stroke-width="1.0"/>
<rect x="172.0" y="406.0" width="41.0" height="34.0" rx="0" fill="white" fill-opacity="1.0" stroke="#EDEDED" stroke-width="1.0"/>
<rect x="213.0" y="406.0" width="41.0" height="34.0" rx="0" fill="white" fill-opacity="1.0" stroke="#EDEDED" stroke-width="1.0"/>
<rect x="254.0" y="406.0" width="41.0" height="34.0" rx="0" fill="white" fill-opacity="1.0" stroke="#EDEDED" stroke-width="1.0"/>
<rect x="295.0" y="406.0" width="41.0" height="34.0" rx="0" fill="white" fill-opacity="1.0" stroke="#EDEDED" stroke-width="1.0"/>
<rect x="336.0" y="406.0" width="41.0" height="34.0" rx="0" fill="white" fill-opacity="1.0" stroke="#EDEDED" stroke-width="1.0"/>
<rect x="377.0" y="406.0" width="41.0" height="34.0" rx="0" fill="white" fill-opacity="1.0" stroke="#EDEDED" stroke-width="1.0"/>
<rect x="418.0" y="406.0" width="41.0" height="34.0" rx="0" fill="white" fill-opacity="1.0" stroke="#EDEDED" stroke-width="1.0"/>
<rect x="459.0" y="406.0" width="41.0" height="34.0" rx="0" fill="white" fill-opacity="1.0" stroke="#EDEDED" stroke-width="1.0"/>
<rect x="500.0" y="406.0" width="41.0" height="34.0" rx="0" fill="white" fill-opacity="1.0" stroke="#EDEDED" stroke-width="1.0"/>
<rect x="541.0" y="406.0" width="41.0" height="34.0" rx="0" fill="white" fill-opacity="1.0" stroke="#EDEDED" stroke-width="1.0"/>
<rect x="582.0" y="406.0" width="41.0" height="34.0" rx="0" fill="white" fill-opacity="1.0" stroke="#EDEDED" stroke-width="1.0"/>
<rect x="84.0" y="84.0" width="166.0" height="92.0" rx="0" fill="#D55E00" fill-opacity="0.22" stroke="#D55E00" stroke-width="1.4"/>
<rect x="84.0" y="176.0" width="166.0" height="56.0" rx="0" fill="#0072B2" fill-opacity="0.22" stroke="#0072B2" stroke-width="1.4"/>
<text x="167.0" y="130.0" font-size="12.5" fill="#D55E00" text-anchor="middle" font-weight="bold">宫城</text>
<text x="167.0" y="150.0" font-size="12" fill="#D55E00" text-anchor="middle">（紫微城）</text>
<text x="167.0" y="210.0" font-size="12" fill="#0072B2" text-anchor="middle">皇城·太微城</text>
<rect x="84.0" y="232.0" width="532.0" height="30.0" rx="0" fill="#56B4E9" fill-opacity="0.3" stroke="#56B4E9" stroke-width="1.0"/>
<text x="606.0" y="252.0" font-size="12.5" fill="#2B2B2B" text-anchor="end" font-weight="bold">洛水</text>
<rect x="418.0" y="90.0" width="40.0" height="38.0" rx="0" fill="#56B4E9" fill-opacity="0.32" stroke="#56B4E9" stroke-width="1.4"/>
<text x="438.0" y="114.0" font-size="12" fill="#2B2B2B" text-anchor="middle" font-weight="bold">北市</text>
<rect x="336.0" y="338.0" width="82.0" height="34.0" rx="0" fill="#56B4E9" fill-opacity="0.32" stroke="#56B4E9" stroke-width="1.4"/>
<text x="377.0" y="361.0" font-size="12" fill="#2B2B2B" text-anchor="middle" font-weight="bold">南市</text>
<rect x="131.0" y="372.0" width="41.0" height="34.0" rx="0" fill="#56B4E9" fill-opacity="0.32" stroke="#56B4E9" stroke-width="1.4"/>
<text x="151.0" y="395.0" font-size="12" fill="#2B2B2B" text-anchor="middle" font-weight="bold">西市</text>
<path d="M 240.0 468.0 L 240.0 232.0" fill="none" stroke="#4A4A4A" stroke-width="2.0" stroke-dasharray="6,4"/>
<text x="240.0" y="486.0" font-size="12.0" fill="#5A5A5A" text-anchor="middle">定鼎门（外郭城正南门）</text>
<text x="258.0" y="428.0" font-size="12.0" fill="#2B2B2B" font-weight="bold">定鼎门大街</text>
<text x="258.0" y="446.0" font-size="12" fill="#5A5A5A">（天街）</text>
<text x="104.0" y="248.0" font-size="12.0" fill="#D55E00" font-weight="bold">应天门</text>
<text x="94.0" y="106.0" font-size="12" fill="#5A5A5A">玄武门·西苑</text>
<rect x="84.0" y="503.0" width="20.0" height="12.0" rx="2" fill="#D55E00" fill-opacity="0.35" stroke="#D55E00" stroke-width="1.0"/>
<text x="110.0" y="514.0" font-size="12" fill="#5A5A5A">宫城</text>
<rect x="242.0" y="503.0" width="20.0" height="12.0" rx="2" fill="#0072B2" fill-opacity="0.35" stroke="#0072B2" stroke-width="1.0"/>
<text x="268.0" y="514.0" font-size="12" fill="#5A5A5A">皇城</text>
<rect x="400.0" y="503.0" width="20.0" height="12.0" rx="2" fill="#56B4E9" fill-opacity="0.35" stroke="#56B4E9" stroke-width="1.0"/>
<text x="426.0" y="514.0" font-size="12" fill="#5A5A5A">洛水与三市</text>
<rect x="558.0" y="503.0" width="20.0" height="12.0" rx="2" fill="#EDEDED" fill-opacity="0.35" stroke="#EDEDED" stroke-width="1.0"/>
<text x="584.0" y="514.0" font-size="12" fill="#5A5A5A">坊（示意）</text>
<text x="84.0" y="542.0" font-size="12" fill="#5A5A5A">宫城占全城约六分之一；城垣以夯土筑成，图未按比例，坊数亦作简化。</text>
</svg>