<svg xmlns="http://www.w3.org/2000/svg" viewBox="0 0 720 430" width="720" height="430" font-family="Segoe UI, Microsoft YaHei, Helvetica, Arial, sans-serif">
<rect width="720" height="430" fill="#FFFFFF"/>
<text x="360.0" y="30.0" font-size="16" fill="#2B2B2B" text-anchor="middle" font-weight="bold">对比度：绕中性灰的增益 g（b = 0，γ = 1）</text>
<line x1="76.0" y1="334.0" x2="76.0" y2="340.0" stroke="#5A5A5A" stroke-width="1.3"/>
<line x1="76.0" y1="334.0" x2="70.0" y2="334.0" stroke="#5A5A5A" stroke-width="1.3"/>
<text x="76.0" y="356.0" font-size="12" fill="#5A5A5A" text-anchor="middle">0</text>
<text x="65.0" y="338.3" font-size="12" fill="#5A5A5A" text-anchor="end">0</text>
<line x1="230.5" y1="334.0" x2="230.5" y2="54.0" stroke="#EDEDED" stroke-width="1"/>
<line x1="76.0" y1="264.0" x2="694.0" y2="264.0" stroke="#EDEDED" stroke-width="1"/>
<line x1="230.5" y1="334.0" x2="230.5" y2="340.0" stroke="#5A5A5A" stroke-width="1.3"/>
<line x1="76.0" y1="264.0" x2="70.0" y2="264.0" stroke="#5A5A5A" stroke-width="1.3"/>
<text x="230.5" y="356.0" font-size="12" fill="#5A5A5A" text-anchor="middle">0.25</text>
<text x="65.0" y="268.3" font-size="12" fill="#5A5A5A" text-anchor="end">0.25</text>
<line x1="385.0" y1="334.0" x2="385.0" y2="54.0" stroke="#EDEDED" stroke-width="1"/>
<line x1="76.0" y1="194.0" x2="694.0" y2="194.0" stroke="#EDEDED" stroke-width="1"/>
<line x1="385.0" y1="334.0" x2="385.0" y2="340.0" stroke="#5A5A5A" stroke-width="1.3"/>
<line x1="76.0" y1="194.0" x2="70.0" y2="194.0" stroke="#5A5A5A" stroke-width="1.3"/>
<text x="385.0" y="356.0" font-size="12" fill="#5A5A5A" text-anchor="middle">0.5</text>
<text x="65.0" y="198.3" font-size="12" fill="#5A5A5A" text-anchor="end">0.5</text>
<line x1="539.5" y1="334.0" x2="539.5" y2="54.0" stroke="#EDEDED" stroke-width="1"/>
<line x1="76.0" y1="124.0" x2="694.0" y2="124.0" stroke="#EDEDED" stroke-width="1"/>
<line x1="539.5" y1="334.0" x2="539.5" y2="340.0" stroke="#5A5A5A" stroke-width="1.3"/>
<line x1="76.0" y1="124.0" x2="70.0" y2="124.0" stroke="#5A5A5A" stroke-width="1.3"/>
<text x="539.5" y="356.0" font-size="12" fill="#5A5A5A" text-anchor="middle">0.75</text>
<text x="65.0" y="128.3" font-size="12" fill="#5A5A5A" text-anchor="end">0.75</text>
<line x1="694.0" y1="334.0" x2="694.0" y2="340.0" stroke="#5A5A5A" stroke-width="1.3"/>
<line x1="76.0" y1="54.0" x2="70.0" y2="54.0" stroke="#5A5A5A" stroke-width="1.3"/>
<text x="694.0" y="356.0" font-size="12" fill="#5A5A5A" text-anchor="middle">1</text>
<text x="65.0" y="58.3" font-size="12" fill="#5A5A5A" text-anchor="end">1</text>
<line x1="76.0" y1="334.0" x2="694.0" y2="334.0" stroke="#5A5A5A" stroke-width="1.6"/>
<line x1="76.0" y1="334.0" x2="76.0" y2="54.0" stroke="#5A5A5A" stroke-width="1.6"/>
<text x="385.0" y="376.0" font-size="12.5" fill="#5A5A5A" text-anchor="middle">输入灰度 x（归一化）</text>
<text x="26.0" y="194.0" font-size="12.5" fill="#5A5A5A" text-anchor="middle" transform="rotate(-90 26 194.0)">输出灰度 y（归一化）</text>
<line x1="385.0" y1="194.0" x2="385.0" y2="334.0" stroke="#AFAFAF" stroke-width="1.5" stroke-dasharray="4,4"/>
<line x1="385.0" y1="194.0" x2="76.0" y2="194.0" stroke="#AFAFAF" stroke-width="1.5" stroke-dasharray="4,4"/>
<circle cx="385.0" cy="194.0" r="5" fill="#FFFFFF" stroke="#2B2B2B" stroke-width="2.2"/>
<text x="373.0" y="216.0" font-size="12" fill="#2B2B2B" text-anchor="end">枢轴 (0.5, 0.5)</text>
<path d="M76.00,334.00 L79.43,332.44 L82.87,330.89 L86.30,329.33 L89.73,327.78 L93.17,326.22 L96.60,324.67 L100.03,323.11 L103.47,321.56 L106.90,320.00 L110.33,318.44 L113.77,316.89 L117.20,315.33 L120.63,313.78 L124.07,312.22 L127.50,310.67 L130.93,309.11 L134.37,307.56 L137.80,306.00 L141.23,304.44 L144.67,302.89 L148.10,301.33 L151.53,299.78 L154.97,298.22 L158.40,296.67 L161.83,295.11 L165.27,293.56 L168.70,292.00 L172.13,290.44 L175.57,288.89 L179.00,287.33 L182.43,285.78 L185.87,284.22 L189.30,282.67 L192.73,281.11 L196.17,279.56 L199.60,278.00 L203.03,276.44 L206.47,274.89 L209.90,273.33 L213.33,271.78 L216.77,270.22 L220.20,268.67 L223.63,267.11 L227.07,265.56 L230.50,264.00 L233.93,262.44 L237.37,260.89 L240.80,259.33 L244.23,257.78 L247.67,256.22 L251.10,254.67 L254.53,253.11 L257.97,251.56 L261.40,250.00 L264.83,248.44 L268.27,246.89 L271.70,245.33 L275.13,243.78 L278.57,242.22 L282.00,240.67 L285.43,239.11 L288.87,237.56 L292.30,236.00 L295.73,234.44 L299.17,232.89 L302.60,231.33 L306.03,229.78 L309.47,228.22 L312.90,226.67 L316.33,225.11 L319.77,223.56 L323.20,222.00 L326.63,220.44 L330.07,218.89 L333.50,217.33 L336.93,215.78 L340.37,214.22 L343.80,212.67 L347.23,211.11 L350.67,209.56 L354.10,208.00 L357.53,206.44 L360.97,204.89 L364.40,203.33 L367.83,201.78 L371.27,200.22 L374.70,198.67 L378.13,197.11 L381.57,195.56 L385.00,194.00 L388.43,192.44 L391.87,190.89 L395.30,189.33 L398.73,187.78 L402.17,186.22 L405.60,184.67 L409.03,183.11 L412.47,181.56 L415.90,180.00 L419.33,178.44 L422.77,176.89 L426.20,175.33 L429.63,173.78 L433.07,172.22 L436.50,170.67 L439.93,169.11 L443.37,167.56 L446.80,166.00 L450.23,164.44 L453.67,162.89 L457.10,161.33 L460.53,159.78 L463.97,158.22 L467.40,156.67 L470.83,155.11 L474.27,153.56 L477.70,152.00 L481.13,150.44 L484.57,148.89 L488.00,147.33 L491.43,145.78 L494.87,144.22 L498.30,142.67 L501.73,141.11 L505.17,139.56 L508.60,138.00 L512.03,136.44 L515.47,134.89 L518.90,133.33 L522.33,131.78 L525.77,130.22 L529.20,128.67 L532.63,127.11 L536.07,125.56 L539.50,124.00 L542.93,122.44 L546.37,120.89 L549.80,119.33 L553.23,117.78 L556.67,116.22 L560.10,114.67 L563.53,113.11 L566.97,111.56 L570.40,110.00 L573.83,108.44 L577.27,106.89 L580.70,105.33 L584.13,103.78 L587.57,102.22 L591.00,100.67 L594.43,99.11 L597.87,97.56 L601.30,96.00 L604.73,94.44 L608.17,92.89 L611.60,91.33 L615.03,89.78 L618.47,88.22 L621.90,86.67 L625.33,85.11 L628.77,83.56 L632.20,82.00 L635.63,80.44 L639.07,78.89 L642.50,77.33 L645.93,75.78 L649.37,74.22 L652.80,72.67 L656.23,71.11 L659.67,69.56 L663.10,68.00 L666.53,66.44 L669.97,64.89 L673.40,63.33 L676.83,61.78 L680.27,60.22 L683.70,58.67 L687.13,57.11 L690.57,55.56 L694.00,54.00" fill="none" stroke="#4A4A4A" stroke-width="3.0" stroke-linecap="round" stroke-linejoin="round"/>
<path d="M76.00,334.00 L79.43,334.00 L82.87,334.00 L86.30,334.00 L89.73,334.00 L93.17,334.00 L96.60,334.00 L100.03,334.00 L103.47,334.00 L106.90,334.00 L110.33,334.00 L113.77,334.00 L117.20,334.00 L120.63,334.00 L124.07,334.00 L127.50,334.00 L130.93,334.00 L134.37,334.00 L137.80,334.00 L141.23,334.00 L144.67,334.00 L148.10,334.00 L151.53,334.00 L154.97,334.00 L158.40,334.00 L161.83,334.00 L165.27,333.38 L168.70,331.20 L172.13,329.02 L175.57,326.84 L179.00,324.67 L182.43,322.49 L185.87,320.31 L189.30,318.13 L192.73,315.96 L196.17,313.78 L199.60,311.60 L203.03,309.42 L206.47,307.24 L209.90,305.07 L213.33,302.89 L216.77,300.71 L220.20,298.53 L223.63,296.36 L227.07,294.18 L230.50,292.00 L233.93,289.82 L237.37,287.64 L240.80,285.47 L244.23,283.29 L247.67,281.11 L251.10,278.93 L254.53,276.76 L257.97,274.58 L261.40,272.40 L264.83,270.22 L268.27,268.04 L271.70,265.87 L275.13,263.69 L278.57,261.51 L282.00,259.33 L285.43,257.16 L288.87,254.98 L292.30,252.80 L295.73,250.62 L299.17,248.44 L302.60,246.27 L306.03,244.09 L309.47,241.91 L312.90,239.73 L316.33,237.56 L319.77,235.38 L323.20,233.20 L326.63,231.02 L330.07,228.84 L333.50,226.67 L336.93,224.49 L340.37,222.31 L343.80,220.13 L347.23,217.96 L350.67,215.78 L354.10,213.60 L357.53,211.42 L360.97,209.24 L364.40,207.07 L367.83,204.89 L371.27,202.71 L374.70,200.53 L378.13,198.36 L381.57,196.18 L385.00,194.00 L388.43,191.82 L391.87,189.64 L395.30,187.47 L398.73,185.29 L402.17,183.11 L405.60,180.93 L409.03,178.76 L412.47,176.58 L415.90,174.40 L419.33,172.22 L422.77,170.04 L426.20,167.87 L429.63,165.69 L433.07,163.51 L436.50,161.33 L439.93,159.16 L443.37,156.98 L446.80,154.80 L450.23,152.62 L453.67,150.44 L457.10,148.27 L460.53,146.09 L463.97,143.91 L467.40,141.73 L470.83,139.56 L474.27,137.38 L477.70,135.20 L481.13,133.02 L484.57,130.84 L488.00,128.67 L491.43,126.49 L494.87,124.31 L498.30,122.13 L501.73,119.96 L505.17,117.78 L508.60,115.60 L512.03,113.42 L515.47,111.24 L518.90,109.07 L522.33,106.89 L525.77,104.71 L529.20,102.53 L532.63,100.36 L536.07,98.18 L539.50,96.00 L542.93,93.82 L546.37,91.64 L549.80,89.47 L553.23,87.29 L556.67,85.11 L560.10,82.93 L563.53,80.76 L566.97,78.58 L570.40,76.40 L573.83,74.22 L577.27,72.04 L580.70,69.87 L584.13,67.69 L587.57,65.51 L591.00,63.33 L594.43,61.16 L597.87,58.98 L601.30,56.80 L604.73,54.62 L608.17,54.00 L611.60,54.00 L615.03,54.00 L618.47,54.00 L621.90,54.00 L625.33,54.00 L628.77,54.00 L632.20,54.00 L635.63,54.00 L639.07,54.00 L642.50,54.00 L645.93,54.00 L649.37,54.00 L652.80,54.00 L656.23,54.00 L659.67,54.00 L663.10,54.00 L666.53,54.00 L669.97,54.00 L673.40,54.00 L676.83,54.00 L680.27,54.00 L683.70,54.00 L687.13,54.00 L690.57,54.00 L694.00,54.00" fill="none" stroke="#D55E00" stroke-width="3.0" stroke-linecap="round" stroke-linejoin="round" stroke-dasharray="8,4"/>
<path d="M76.00,278.00 L79.43,277.07 L82.87,276.13 L86.30,275.20 L89.73,274.27 L93.17,273.33 L96.60,272.40 L100.03,271.47 L103.47,270.53 L106.90,269.60 L110.33,268.67 L113.77,267.73 L117.20,266.80 L120.63,265.87 L124.07,264.93 L127.50,264.00 L130.93,263.07 L134.37,262.13 L137.80,261.20 L141.23,260.27 L144.67,259.33 L148.10,258.40 L151.53,257.47 L154.97,256.53 L158.40,255.60 L161.83,254.67 L165.27,253.73 L168.70,252.80 L172.13,251.87 L175.57,250.93 L179.00,250.00 L182.43,249.07 L185.87,248.13 L189.30,247.20 L192.73,246.27 L196.17,245.33 L199.60,244.40 L203.03,243.47 L206.47,242.53 L209.90,241.60 L213.33,240.67 L216.77,239.73 L220.20,238.80 L223.63,237.87 L227.07,236.93 L230.50,236.00 L233.93,235.07 L237.37,234.13 L240.80,233.20 L244.23,232.27 L247.67,231.33 L251.10,230.40 L254.53,229.47 L257.97,228.53 L261.40,227.60 L264.83,226.67 L268.27,225.73 L271.70,224.80 L275.13,223.87 L278.57,222.93 L282.00,222.00 L285.43,221.07 L288.87,220.13 L292.30,219.20 L295.73,218.27 L299.17,217.33 L302.60,216.40 L306.03,215.47 L309.47,214.53 L312.90,213.60 L316.33,212.67 L319.77,211.73 L323.20,210.80 L326.63,209.87 L330.07,208.93 L333.50,208.00 L336.93,207.07 L340.37,206.13 L343.80,205.20 L347.23,204.27 L350.67,203.33 L354.10,202.40 L357.53,201.47 L360.97,200.53 L364.40,199.60 L367.83,198.67 L371.27,197.73 L374.70,196.80 L378.13,195.87 L381.57,194.93 L385.00,194.00 L388.43,193.07 L391.87,192.13 L395.30,191.20 L398.73,190.27 L402.17,189.33 L405.60,188.40 L409.03,187.47 L412.47,186.53 L415.90,185.60 L419.33,184.67 L422.77,183.73 L426.20,182.80 L429.63,181.87 L433.07,180.93 L436.50,180.00 L439.93,179.07 L443.37,178.13 L446.80,177.20 L450.23,176.27 L453.67,175.33 L457.10,174.40 L460.53,173.47 L463.97,172.53 L467.40,171.60 L470.83,170.67 L474.27,169.73 L477.70,168.80 L481.13,167.87 L484.57,166.93 L488.00,166.00 L491.43,165.07 L494.87,164.13 L498.30,163.20 L501.73,162.27 L505.17,161.33 L508.60,160.40 L512.03,159.47 L515.47,158.53 L518.90,157.60 L522.33,156.67 L525.77,155.73 L529.20,154.80 L532.63,153.87 L536.07,152.93 L539.50,152.00 L542.93,151.07 L546.37,150.13 L549.80,149.20 L553.23,148.27 L556.67,147.33 L560.10,146.40 L563.53,145.47 L566.97,144.53 L570.40,143.60 L573.83,142.67 L577.27,141.73 L580.70,140.80 L584.13,139.87 L587.57,138.93 L591.00,138.00 L594.43,137.07 L597.87,136.13 L601.30,135.20 L604.73,134.27 L608.17,133.33 L611.60,132.40 L615.03,131.47 L618.47,130.53 L621.90,129.60 L625.33,128.67 L628.77,127.73 L632.20,126.80 L635.63,125.87 L639.07,124.93 L642.50,124.00 L645.93,123.07 L649.37,122.13 L652.80,121.20 L656.23,120.27 L659.67,119.33 L663.10,118.40 L666.53,117.47 L669.97,116.53 L673.40,115.60 L676.83,114.67 L680.27,113.73 L683.70,112.80 L687.13,111.87 L690.57,110.93 L694.00,110.00" fill="none" stroke="#0072B2" stroke-width="3.0" stroke-linecap="round" stroke-linejoin="round" stroke-dasharray="8,4"/>
<rect x="567.8" y="237.0" width="112.2" height="83.0" rx="8" fill="#FFFFFF" fill-opacity="0.96" stroke="#DCDCDC" stroke-width="1"/>
<line x1="580.8" y1="258.0" x2="608.8" y2="258.0" stroke="#4A4A4A" stroke-width="3.0" stroke-linecap="round"/>
<text x="616.8" y="262.5" font-size="12.5" fill="#2B2B2B">g = 1.0</text>
<line x1="580.8" y1="281.0" x2="608.8" y2="281.0" stroke="#D55E00" stroke-width="3.0" stroke-linecap="round" stroke-dasharray="8,4"/>
<text x="616.8" y="285.5" font-size="12.5" fill="#2B2B2B">g = 1.4</text>
<line x1="580.8" y1="304.0" x2="608.8" y2="304.0" stroke="#0072B2" stroke-width="3.0" stroke-linecap="round" stroke-dasharray="8,4"/>
<text x="616.8" y="308.5" font-size="12.5" fill="#2B2B2B">g = 0.6</text>
<text x="76.0" y="398.0" font-size="12" fill="#5A5A5A">g 为对比度增益，曲线绕枢轴 (0.5, 0.5) 旋转：g &gt; 1 反差变强，g &lt; 1 反差变弱。</text>
<text x="76.0" y="416.0" font-size="12" fill="#5A5A5A">x ≥ 0.5 + 0.5/g 的高光被截断为纯白。</text>
</svg>